<svg version="1.1" xmlns="http://www.w3.org/2000/svg">
  <defs>
    <symbol id="home" viewBox="0 0 24 24">
      <title>home</title>
      <path d="M10 20v-6h4v6h5v-8h3L12 3 2 12h3v8z"/>
      <path d="M0 0h24v24H0z" fill="none"/>
    </symbol>

    <symbol id="flipCamera" viewBox="0 0 24 24">
      <title>flip camera</title>
      <path d="M20,5h-3.17L15,3H9L7.17,5H4C2.9,5,2,5.9,2,7v12c0,1.1,0.9,2,2,2h16c1.1,0,2-0.9,2-2V7C22,5.9,21.1,5,20,5z M12,18
			c-2.76,0-5-2.24-5-5H5l2.5-2.5L10,13H8c0,2.21,1.79,4,4,4c0.58,0,1.13-0.13,1.62-0.35l0.74,0.74C13.65,17.76,12.86,18,12,18z
			 M16.5,15.5L14,13h2c0-2.21-1.79-4-4-4c-0.58,0-1.13,0.13-1.62,0.35L9.64,8.62C10.35,8.24,11.14,8,12,8c2.76,0,5,2.24,5,5h2
			L16.5,15.5z"/>
    </symbol>

    <symbol id="scan" viewBox="0 0 24 24">
      <title>scan</title>
      <circle cx="12" cy="14" r="3.2"/>
      <circle fill="none" cx="12" cy="14" r="5"/>
      <path d="M16 3.33c2.58 0 4.67 2.09 4.67 4.67H22c0-3.31-2.69-6-6-6v1.33M16 6c1.11 0 2 .89 2 2h1.33c0-1.84-1.49-3.33-3.33-3.33V6"/>
      <path fill="none" d="M24 0H0v24h24V0z"/>
      <path d="M17 9c0-1.11-.89-2-2-2V4H9L7.17 6H4c-1.1 0-2 .9-2 2v12c0 1.1.9 2 2 2h16c1.1 0 2-.9 2-2V9h-5zm-5 10c-2.76 0-5-2.24-5-5s2.24-5 5-5 5 2.24 5 5-2.24 5-5 5z"/>
    </symbol>

    <symbol id="delete" viewBox="0 0 24 24">
      <title>delete</title>
      <path d="M6 19c0 1.1.9 2 2 2h8c1.1 0 2-.9 2-2V7H6v12zM19 4h-3.5l-1-1h-5l-1 1H5v2h14V4z"/>
      <path d="M0 0h24v24H0z" fill="none"/>
    </symbol>

    <symbol id="cart" viewBox="0 0 24 24">
      <title>cart</title>
      <path d="M0 0h24v24H0z" fill="none"/>
      <path d="M17.21 9l-4.38-6.56c-.19-.28-.51-.42-.83-.42-.32 0-.64.14-.83.43L6.79 9H2c-.55 0-1 .45-1 1 0 .09.01.18.04.27l2.54 9.27c.23.84 1 1.46 1.92 1.46h13c.92 0 1.69-.62 1.93-1.46l2.54-9.27L23 10c0-.55-.45-1-1-1h-4.79zM9 9l3-4.4L15 9H9zm3 8c-1.1 0-2-.9-2-2s.9-2 2-2 2 .9 2 2-.9 2-2 2z"/>
    </symbol>

    <symbol id="close" viewBox="0 0 24 24">
      <title>close</title>
      <path fill="none" d="M0 0h24v24H0V0z"/>
      <path d="M18.3 5.71c-.39-.39-1.02-.39-1.41 0L12 10.59 7.11 5.7c-.39-.39-1.02-.39-1.41 0-.39.39-.39 1.02 0 1.41L10.59 12 5.7 16.89c-.39.39-.39 1.02 0 1.41.39.39 1.02.39 1.41 0L12 13.41l4.89 4.89c.39.39 1.02.39 1.41 0 .39-.39.39-1.02 0-1.41L13.41 12l4.89-4.89c.38-.38.38-1.02 0-1.4z"/>
    </symbol>

    <symbol id="search" viewBox="0 0 24 24">
      <title>home</title>
      <path d="M15.5 14h-.79l-.28-.27C15.41 12.59 16 11.11 16 9.5 16 5.91 13.09 3 9.5 3S3 5.91 3 9.5 5.91 16 9.5 16c1.61 0 3.09-.59 4.23-1.57l.27.28v.79l5 4.99L20.49 19l-4.99-5zm-6 0C7.01 14 5 11.99 5 9.5S7.01 5 9.5 5 14 7.01 14 9.5 11.99 14 9.5 14z"/>
      <path d="M0 0h24v24H0z" fill="none"/>
    </symbol>

    <symbol id="back" viewBox="0 0 24 24">
      <title>back</title>
      <path fill="none" d="M0 0h24v24H0V0z"/>
      <path d="M19 11H7.83l4.88-4.88c.39-.39.39-1.03 0-1.42-.39-.39-1.02-.39-1.41 0l-6.59 6.59c-.39.39-.39 1.02 0 1.41l6.59 6.59c.39.39 1.02.39 1.41 0 .39-.39.39-1.02 0-1.41L7.83 13H19c.55 0 1-.45 1-1s-.45-1-1-1z"/>
    </symbol>

    <symbol id="profile" viewBox="0 0 24 24">
      <title>profile</title>
      <path d="M12 2C6.48 2 2 6.48 2 12s4.48 10 10 10 10-4.48 10-10S17.52 2 12 2zm0 3c1.66 0 3 1.34 3 3s-1.34 3-3 3-3-1.34-3-3 1.34-3 3-3zm0 14.2c-2.5 0-4.71-1.28-6-3.22.03-1.99 4-3.08 6-3.08 1.99 0 5.97 1.09 6 3.08-1.29 1.94-3.5 3.22-6 3.22z"/>
      <path d="M0 0h24v24H0z" fill="none"/>
    </symbol>

    <symbol id="orders" viewBox="0 0 24 24">
      <title>orders</title>
      <path d="M18 17H6v-2h12v2zm0-4H6v-2h12v2zm0-4H6V7h12v2zM3 22l1.5-1.5L6 22l1.5-1.5L9 22l1.5-1.5L12 22l1.5-1.5L15 22l1.5-1.5L18 22l1.5-1.5L21 22V2l-1.5 1.5L18 2l-1.5 1.5L15 2l-1.5 1.5L12 2l-1.5 1.5L9 2 7.5 3.5 6 2 4.5 3.5 3 2v20z"/>
      <path d="M0 0h24v24H0z" fill="none"/>
    </symbol>

    <symbol id="sign-out" viewBox="0 0 24 24">
      <title>sign out</title>
      <path fill="none" d="M0 0h24v24H0z"/>
      <path d="M13 3h-2v10h2V3zm4.83 2.17l-1.42 1.42C17.99 7.86 19 9.81 19 12c0 3.87-3.13 7-7 7s-7-3.13-7-7c0-2.19 1.01-4.14 2.58-5.42L6.17 5.17C4.23 6.82 3 9.26 3 12c0 4.97 4.03 9 9 9s9-4.03 9-9c0-2.74-1.23-5.18-3.17-6.83z"/>
    </symbol>

    <symbol id="mail" viewBox="0 0 24 24">
      <title>mail</title>
      <path d="M20 4H4c-1.1 0-1.99.9-1.99 2L2 18c0 1.1.9 2 2 2h16c1.1 0 2-.9 2-2V6c0-1.1-.9-2-2-2zm0 4l-8 5-8-5V6l8 5 8-5v2z"/>
      <path d="M0 0h24v24H0z" fill="none"/>
    </symbol>

    <symbol id="settings" viewBox="0 0 24 24">
      <title>settings</title>
      <path d="M0 0h24v24H0z" fill="none"/>
      <path d="M12 10c-1.1 0-2 .9-2 2s.9 2 2 2 2-.9 2-2-.9-2-2-2zm7-7H5c-1.11 0-2 .9-2 2v14c0 1.1.89 2 2 2h14c1.11 0 2-.9 2-2V5c0-1.1-.89-2-2-2zm-1.75 9c0 .23-.02.46-.05.68l1.48 1.16c.13.11.17.3.08.45l-1.4 2.42c-.09.15-.27.21-.43.15l-1.74-.7c-.36.28-.76.51-1.18.69l-.26 1.85c-.03.17-.18.3-.35.3h-2.8c-.17 0-.32-.13-.35-.29l-.26-1.85c-.43-.18-.82-.41-1.18-.69l-1.74.7c-.16.06-.34 0-.43-.15l-1.4-2.42c-.09-.15-.05-.34.08-.45l1.48-1.16c-.03-.23-.05-.46-.05-.69 0-.23.02-.46.05-.68l-1.48-1.16c-.13-.11-.17-.3-.08-.45l1.4-2.42c.09-.15.27-.21.43-.15l1.74.7c.36-.28.76-.51 1.18-.69l.26-1.85c.03-.17.18-.3.35-.3h2.8c.17 0 .32.13.35.29l.26 1.85c.43.18.82.41 1.18.69l1.74-.7c.16-.06.34 0 .43.15l1.4 2.42c.09.15.05.34-.08.45l-1.48 1.16c.03.23.05.46.05.69z"/>
    </symbol>
  </defs>
</svg>
