<svg version="1.1" xmlns="http://www.w3.org/2000/svg">
  <defs>
    <symbol id="home" viewBox="0 0 24 24">
      <title>home</title>
      <path d="M10 20v-6h4v6h5v-8h3L12 3 2 12h3v8z"/>
      <path d="M0 0h24v24H0z" fill="none"/>
    </symbol>

    <symbol id="profile" viewBox="0 0 24 24">
      <title>profile</title>
      <path d="M12 2C6.48 2 2 6.48 2 12s4.48 10 10 10 10-4.48 10-10S17.52 2 12 2zm0 3c1.66 0 3 1.34 3 3s-1.34 3-3 3-3-1.34-3-3 1.34-3 3-3zm0 14.2c-2.5 0-4.71-1.28-6-3.22.03-1.99 4-3.08 6-3.08 1.99 0 5.97 1.09 6 3.08-1.29 1.94-3.5 3.22-6 3.22z"/>
      <path d="M0 0h24v24H0z" fill="none"/>
    </symbol>

    <symbol id="orders" viewBox="0 0 24 24">
      <title>orders</title>
      <path d="M18 17H6v-2h12v2zm0-4H6v-2h12v2zm0-4H6V7h12v2zM3 22l1.5-1.5L6 22l1.5-1.5L9 22l1.5-1.5L12 22l1.5-1.5L15 22l1.5-1.5L18 22l1.5-1.5L21 22V2l-1.5 1.5L18 2l-1.5 1.5L15 2l-1.5 1.5L12 2l-1.5 1.5L9 2 7.5 3.5 6 2 4.5 3.5 3 2v20z"/>
      <path d="M0 0h24v24H0z" fill="none"/>
    </symbol>
  </defs>
</svg>
